<svg width="20" height="20" viewBox="0 0 20 20" fill="none" xmlns="http://www.w3.org/2000/svg">
<path d="M11.192 4.52502V5.64169C9.00866 5.81669 7.76699 7.21669 7.76699 9.52502V13.3334H4.52533C2.61699 13.3334 1.66699 12.3834 1.66699 10.475V4.52502C1.66699 2.61669 2.61699 1.66669 4.52533 1.66669H8.33366C10.242 1.66669 11.192 2.61669 11.192 4.52502Z" fill="white"/>
<path d="M15.4753 6.66669H11.6669C9.75859 6.66669 8.80859 7.61669 8.80859 9.52502V15.475C8.80859 17.3834 9.75859 18.3334 11.6669 18.3334H15.4753C17.3836 18.3334 18.3336 17.3834 18.3336 15.475V9.52502C18.3336 7.61669 17.3836 6.66669 15.4753 6.66669ZM15.1086 13.125H14.3753V13.8584C14.3753 14.2 14.0919 14.4834 13.7503 14.4834C13.4086 14.4834 13.1253 14.2 13.1253 13.8584V13.125H12.3919C12.0503 13.125 11.7669 12.8417 11.7669 12.5C11.7669 12.1584 12.0503 11.875 12.3919 11.875H13.1253V11.1417C13.1253 10.8 13.4086 10.5167 13.7503 10.5167C14.0919 10.5167 14.3753 10.8 14.3753 11.1417V11.875H15.1086C15.4503 11.875 15.7336 12.1584 15.7336 12.5C15.7336 12.8417 15.4503 13.125 15.1086 13.125Z" fill="white"/>
</svg>
