<svg width="112" height="50" viewBox="0 0 112 50" fill="none" xmlns="http://www.w3.org/2000/svg">
<path d="M15.9346 16.1992H23.954L40.8297 33.0629L23.954 50.0001H15.9346L32.8103 33.0629L15.9346 16.1992Z" fill="#F22178"/>
<path d="M16.806 33.8009L0 16.8636L16.806 0H24.8254L7.94971 16.8636L24.8254 33.8009H16.806Z" fill="#1598CC"/>
<path d="M53.7694 35.1498C52.458 35.1498 51.2272 34.9261 50.0772 34.4786C48.9272 34.0099 47.9385 33.3175 47.1113 32.4013L48.1403 30.4198C49.0482 31.3147 49.9561 31.9539 50.8641 32.3374C51.772 32.7209 52.7001 32.9126 53.6484 32.9126C54.7379 32.9126 55.6256 32.6996 56.3116 32.2735C56.9976 31.826 57.3406 31.1762 57.3406 30.324C57.3406 29.7061 57.159 29.248 56.7958 28.9497C56.4528 28.6514 55.9585 28.4064 55.3129 28.2146C54.6672 28.0016 53.9006 27.7672 53.0128 27.5115C51.9233 27.1706 51.0053 26.8084 50.2588 26.4249C49.5123 26.0414 48.9473 25.562 48.564 24.9868C48.1807 24.4115 47.989 23.6871 47.989 22.8135C47.989 21.7482 48.2513 20.8534 48.7758 20.129C49.3004 19.3833 50.0167 18.8187 50.9246 18.4351C51.8527 18.0516 52.9018 17.8599 54.072 17.8599C55.2423 17.8599 56.3015 18.0516 57.2498 18.4351C58.198 18.8187 59.0152 19.3833 59.7012 20.129L58.4906 22.0785C57.8651 21.3967 57.1792 20.896 56.4326 20.5764C55.6861 20.2355 54.8488 20.0651 53.9207 20.0651C53.376 20.0651 52.8413 20.1396 52.3167 20.2888C51.7922 20.4166 51.3584 20.6616 51.0154 21.0238C50.6724 21.3647 50.5009 21.8548 50.5009 22.494C50.5009 23.0266 50.632 23.4527 50.8943 23.7723C51.1768 24.0706 51.5803 24.3263 52.1049 24.5393C52.6496 24.7524 53.3054 24.9868 54.072 25.2424C55.2624 25.6046 56.2914 25.9669 57.159 26.3291C58.0467 26.6913 58.7327 27.16 59.2169 27.7353C59.7012 28.3105 59.9433 29.1095 59.9433 30.1322C59.9433 31.7089 59.3783 32.9446 58.2485 33.8395C57.1186 34.713 55.6256 35.1498 53.7694 35.1498Z" fill="white"/>
<path d="M71.6337 35.1498C70.3424 35.1498 69.1924 34.8089 68.1836 34.1271C67.1748 33.4453 66.3778 32.5824 65.7927 31.5384V41.6375H63.1295V18.1475H65.4901V21.2795C66.1155 20.2568 66.9327 19.4365 67.9415 18.8186C68.9503 18.1795 70.0499 17.8599 71.2402 17.8599C72.3298 17.8599 73.3285 18.0942 74.2364 18.563C75.1443 19.0317 75.9312 19.6709 76.597 20.4805C77.2628 21.2902 77.7773 22.217 78.1404 23.261C78.5238 24.2837 78.7155 25.3596 78.7155 26.4889C78.7155 28.0655 78.4128 29.5143 77.8075 30.8353C77.2224 32.1563 76.3952 33.2109 75.3259 33.9993C74.2566 34.7663 73.0258 35.1498 71.6337 35.1498ZM70.8166 32.7209C71.6034 32.7209 72.3096 32.5504 72.935 32.2095C73.5807 31.8473 74.1254 31.3786 74.5693 30.8033C75.0333 30.2068 75.3864 29.5356 75.6285 28.7899C75.8706 28.0442 75.9917 27.2772 75.9917 26.4889C75.9917 25.6579 75.8505 24.8696 75.568 24.1239C75.3057 23.3782 74.9224 22.7177 74.418 22.1424C73.9337 21.5671 73.3587 21.1197 72.6929 20.8001C72.0473 20.4592 71.3411 20.2888 70.5744 20.2888C70.0902 20.2888 69.5858 20.3847 69.0612 20.5764C68.5568 20.7682 68.0726 21.0451 67.6086 21.4073C67.1445 21.7482 66.7511 22.1424 66.4283 22.5898C66.1055 23.0373 65.8936 23.5166 65.7927 24.028V28.7899C66.0954 29.5143 66.4989 30.1748 67.0033 30.7714C67.5077 31.368 68.0928 31.8473 68.7586 32.2095C69.4244 32.5504 70.1104 32.7209 70.8166 32.7209Z" fill="white"/>
<path d="M81.9854 34.8302V18.1475H84.6486V34.8302H81.9854ZM81.9854 15.0155V11.5H84.6486V15.0155H81.9854Z" fill="white"/>
<path d="M88.9603 34.8302V18.1475H91.6235V34.8302H88.9603ZM88.9603 15.0155V11.5H91.6235V15.0155H88.9603Z" fill="white"/>
<path d="M95.9957 11.5H98.659V30.5157C98.659 31.4319 98.78 31.9965 99.0221 32.2095C99.2642 32.4226 99.5568 32.5291 99.8998 32.5291C100.323 32.5291 100.727 32.4865 101.11 32.4013C101.494 32.2948 101.817 32.1882 102.079 32.0817L102.502 34.3828C102.059 34.5745 101.534 34.7343 100.929 34.8622C100.323 34.99 99.7888 35.0539 99.3248 35.0539C98.2958 35.0539 97.4787 34.745 96.8734 34.1271C96.2883 33.5092 95.9957 32.6463 95.9957 31.5384V11.5Z" fill="white"/>
<path d="M104.655 11.5H107.318V30.5157C107.318 31.4319 107.44 31.9965 107.682 32.2095C107.924 32.4226 108.216 32.5291 108.559 32.5291C108.983 32.5291 109.387 32.4865 109.77 32.4013C110.153 32.2948 110.476 32.1882 110.738 32.0817L111.162 34.3828C110.718 34.5745 110.194 34.7343 109.588 34.8622C108.983 34.99 108.448 35.0539 107.984 35.0539C106.955 35.0539 106.138 34.745 105.533 34.1271C104.948 33.5092 104.655 32.6463 104.655 31.5384V11.5Z" fill="white"/>
</svg>
